<?xml version="1.0" encoding="UTF-8" standalone="no"?>
<!-- Created with Inkscape (http://www.inkscape.org/) -->

<svg
   xmlns:dc="http://purl.org/dc/elements/1.1/"
   xmlns:cc="http://creativecommons.org/ns#"
   xmlns:rdf="http://www.w3.org/1999/02/22-rdf-syntax-ns#"
   xmlns:svg="http://www.w3.org/2000/svg"
   xmlns="http://www.w3.org/2000/svg"
   xmlns:sodipodi="http://sodipodi.sourceforge.net/DTD/sodipodi-0.dtd"
   xmlns:inkscape="http://www.inkscape.org/namespaces/inkscape"
   width="1920px"
   height="1080px"
   viewBox="0 0 1920 1080"
   version="1.1"
   id="SVGRoot"
   inkscape:version="0.92.3 (2405546, 2018-03-11)"
   sodipodi:docname="Elephant.svg">
  <sodipodi:namedview
     id="base"
     pagecolor="#ffffff"
     bordercolor="#666666"
     borderopacity="1.0"
     inkscape:pageopacity="0.0"
     inkscape:pageshadow="2"
     inkscape:zoom="0.49497475"
     inkscape:cx="1004.2077"
     inkscape:cy="637.30246"
     inkscape:document-units="px"
     inkscape:current-layer="layer1"
     showgrid="false"
     inkscape:window-width="1920"
     inkscape:window-height="1001"
     inkscape:window-x="-9"
     inkscape:window-y="-9"
     inkscape:window-maximized="1" />
  <defs
     id="defs10" />
  <metadata
     id="metadata13">
    <rdf:RDF>
      <cc:Work
         rdf:about="">
        <dc:format>image/svg+xml</dc:format>
        <dc:type
           rdf:resource="http://purl.org/dc/dcmitype/StillImage" />
        <dc:title />
      </cc:Work>
    </rdf:RDF>
  </metadata>
  <g
     id="layer1"
     inkscape:groupmode="layer"
     inkscape:label="Ebene 1">
    <g
       id="g845"
       transform="matrix(-1,0,0,1,2039.411,-170)">
      <path
         style="fill:#ca5768;stroke-width:0.20686869"
         d="m 1098.6419,665.19257 c -2.4978,-0.18676 -7.1852,-0.98712 -10.0009,-1.70762 -8.3886,-2.14659 -15.9565,-6.4657 -17.8393,-10.18119 -0.88,-1.73649 -1.0035,-3.49864 -0.737,-10.50816 0.1322,-3.47564 0.3474,-9.13596 0.4782,-12.57849 0.1309,-3.44254 0.1875,-6.30955 0.1259,-6.37118 -0.062,-0.0616 -1.3565,0.57963 -2.8775,1.42497 -1.5211,0.84535 -4.4848,2.48611 -6.586,3.64617 -4.5061,2.48772 -8.0736,4.81058 -12.039,7.83898 -1.5863,1.21144 -3.4145,2.60787 -4.0627,3.10315 -1.083,0.82754 -1.2571,0.89295 -2.1492,0.80726 -2.2917,-0.22012 -6.9424,-3.0487 -10.2653,-6.24344 -4.6789,-4.49834 -7.9567,-9.74693 -10.7633,-17.23497 -2.0091,-5.35999 -2.3972,-6.95453 -2.4047,-9.88028 -0.01,-2.38563 0.018,-2.52458 0.6141,-3.56375 1.5171,-2.64328 6.2473,-7.85041 10.6615,-11.73636 6.5277,-5.74656 13.5336,-10.24068 22.7687,-14.60563 5.1184,-2.41921 8.2873,-3.70686 10.9949,-4.46774 1.6507,-0.46389 2.017,-0.63863 2.017,-0.96244 0,-1.1136 -3.3642,-11.51806 -5.077,-15.70164 -0.9172,-2.24035 -3.3287,-7.42394 -5.898,-12.67799 -1.5037,-3.07509 -3.0505,-5.48202 -3.5228,-5.48202 -0.4728,0 -3.5673,3.36889 -10.7669,11.72157 -2.6631,3.0896 -4.8444,4.38828 -6.9684,4.14888 -1.842,-0.20762 -3.1117,-1.87885 -3.7013,-4.87162 -0.1831,-0.92935 -0.4039,-1.68974 -0.4907,-1.68974 -0.087,0 -0.5472,1.18691 -1.0232,2.63757 -3.3088,10.08309 -8.5094,22.05583 -13.4882,31.05232 -10.4909,18.95674 -23.41844,33.79595 -37.81021,43.40152 -17.88025,11.93393 -40.06683,16.40972 -58.26318,11.75366 -6.61921,-1.69369 -12.62914,-4.66514 -17.65763,-8.73025 -3.43962,-2.78067 -7.64923,-7.53066 -9.92317,-11.19702 -4.25122,-6.85436 -6.22546,-13.90108 -5.94202,-21.20894 0.33493,-8.63538 3.59075,-15.86395 9.89192,-21.96207 3.86214,-3.73766 7.81136,-5.90804 12.85677,-7.06566 1.05369,-0.24175 2.44072,-0.34166 4.70115,-0.3386 2.87266,0.004 3.39591,0.0617 5.0262,0.5556 5.34135,1.61817 9.78925,5.39533 11.93893,10.13854 0.71596,1.57977 0.9837,2.56345 1.23309,4.53038 0.2617,2.06411 0.0128,2.98062 -0.91454,3.36811 -0.78289,0.3271 -0.86601,0.30811 -4.03645,-0.92216 -1.20752,-0.46856 -2.24311,-0.76127 -2.34233,-0.66206 -0.0992,0.0992 -0.0853,0.53246 0.0315,0.97992 0.45661,1.74936 0.69618,4.15301 0.45824,4.59761 -0.40292,0.75288 -1.52218,0.92793 -4.30777,0.67373 -4.3762,-0.39936 -6.0336,-0.24739 -6.91497,0.63397 -0.36293,0.36293 -0.41136,0.62822 -0.34685,1.90009 0.099,1.95218 0.86226,3.5183 2.50098,5.13177 3.55151,3.49678 9.38248,3.9742 14.01629,1.14758 8.83906,-5.39182 14.0504,-15.85737 15.52455,-31.17682 0.55163,-5.7325 0.45112,-20.21281 -0.18375,-26.47202 -0.12902,-1.27201 -0.16603,-1.34483 -0.75626,-1.48792 -0.34134,-0.0827 -1.44426,-0.3451 -2.45095,-0.58302 -6.83612,-1.6156 -11.94071,-5.85049 -11.92188,-9.89066 0.006,-1.3584 0.61903,-2.59244 1.61409,-3.25094 1.55699,-1.03037 2.47962,-1.19272 7.17328,-1.26217 l 4.34425,-0.0643 -0.0325,-0.99148 c -0.0179,-0.54531 -0.36681,-3.8388 -0.77544,-7.31889 -3.3694,-28.6955 -4.16776,-48.53082 -2.7012,-67.11096 2.31825,-29.37027 10.37783,-52.63732 24.8654,-71.78343 14.46826,-19.12058 35.19245,-34.10051 57.25386,-41.38441 9.0566,-2.99016 19.9142,-4.89686 31.8184,-5.58761 l 2.4431,-0.14176 0.859,-1.16274 c 4.6651,-6.31494 14.1775,-12.78747 28.3882,-19.31607 10.0887,-4.63495 19.4918,-7.15465 24.4177,-6.5431 3.4318,0.42607 5.5979,1.91004 6.1067,4.18377 0.5619,2.5108 -0.9997,6.37389 -5.2803,13.06303 -2.4667,3.85451 -4.7108,8.02094 -5.9612,11.06748 -0.9836,2.3967 -2.0096,5.33722 -2.0086,5.75708 0,0.2188 0.3609,0.48957 0.9826,0.73818 0.54,0.21596 2.0822,0.90792 3.4271,1.5377 l 2.4453,1.14505 1.7955,-0.57932 c 4.2754,-1.3794 8.8154,-3.08381 17.9313,-6.73173 16.2181,-6.49 21.6535,-8.41212 38.9948,-13.78986 18.6792,-5.79265 36.1011,-8.45967 43.4424,-6.65032 5.4064,1.33246 6.1647,4.94199 2.238,10.65207 -1.4254,2.07261 -3.6634,4.31121 -7.5112,7.5129 -1.7055,1.4192 -3.0792,2.67346 -3.0526,2.78724 0.072,0.30764 3.2255,0.3696 5.1193,0.10057 0.9103,-0.12929 3.6099,-0.65203 5.9992,-1.16164 2.3894,-0.50961 5.2752,-1.05945 6.413,-1.22189 5.3877,-0.76915 9.9779,0.0198 12.3089,2.11564 1.5935,1.43262 1.9572,2.26922 1.9614,4.51156 0,2.36261 -0.4576,3.39455 -2.3625,5.27515 -1.7957,1.77277 -4.2488,3.42299 -8.9082,5.99263 -2.1049,1.16082 -3.9488,2.22762 -4.0975,2.37066 -0.22,0.21163 0.1461,0.60854 1.9653,2.1309 2.5902,2.1676 7.0858,6.70672 8.8656,8.95147 1.9202,2.42187 4.4697,6.34749 5.7576,8.86532 2.08,4.06644 3.2965,7.69756 4.4085,13.15939 0.1388,0.68146 0.2724,0.84694 0.7877,0.97547 3.0502,0.76077 7.1719,2.01071 9.3598,2.83843 8.861,3.35232 18.0468,8.7561 27.0075,15.8878 8.0298,6.39079 16.8355,15.2834 23.7358,23.97004 10.9613,13.79905 19.5291,29.92581 24.2101,45.5693 0.5666,1.89361 1.1259,3.67566 1.2429,3.9601 0.1169,0.28445 1.1619,1.27404 2.3222,2.19909 5.6863,4.53347 9.9909,6.18874 14.7021,5.65342 5.3268,-0.60528 10.2074,-4.02882 14.4812,-10.15792 1.0146,-1.45505 1.2474,-1.62509 2.2245,-1.62509 0.8394,0 1.5272,0.74734 1.9288,2.09563 1.8962,6.36581 -0.129,13.10521 -5.6726,18.87686 -5.1774,5.39052 -11.8665,8.6053 -18.6243,8.95086 -1.7358,0.0888 -2.8964,0.0311 -4.2926,-0.21318 -1.0525,-0.18416 -1.9736,-0.33482 -2.047,-0.33482 -0.073,0 -0.076,0.62837 -0.01,1.39637 1.4184,15.63664 1.6215,23.3467 0.952,36.1503 -1.3704,26.20981 -7.4728,55.57678 -17.3734,83.60759 -2.4647,6.97826 -2.2963,6.37652 -3.5512,12.68978 l -1.0896,5.48202 v 6.51637 c 0,7.50755 -0.084,7.99133 -1.6534,9.60596 -2.1973,2.26079 -8.8792,4.56106 -15.4044,5.30302 -2.7348,0.31096 -9.914,0.13523 -12.6795,-0.31037 -14.0978,-2.27156 -17.2322,-4.23487 -19.2,-12.02616 -1.0627,-4.208 -2.6866,-16.48216 -2.9955,-22.64209 -0.2011,-4.01143 0.3739,-12.70389 1.0642,-16.08532 0.1689,-0.82746 0.2575,-1.5847 0.1969,-1.68278 -0.061,-0.0981 -1.2518,0.18389 -2.6469,0.62657 -1.3952,0.4427 -3.5607,1.09253 -4.8123,1.44409 -1.2516,0.35153 -2.3816,0.74659 -2.5112,0.87786 -0.1295,0.13128 -1.0745,2.56598 -2.0999,5.41043 -5.6552,15.68745 -8.6667,26.3332 -9.6558,34.13333 -0.878,6.92493 -1.4121,8.71728 -2.8145,9.44507 -2.1432,1.11218 -6.0233,2.10112 -9.5581,2.43604 -5.4443,0.51585 -13.9862,-0.86082 -20.4022,-3.28814 -6.647,-2.51471 -10.6414,-5.18301 -12.266,-8.19373 -1.1508,-2.13259 -1.502,-3.97031 -1.4993,-7.84651 0,-5.09385 1.2174,-13.70605 2.8003,-19.86585 0.4669,-1.81691 0.8996,-3.52686 0.9617,-3.79993 l 0.1128,-0.49648 -1.8402,0.13249 c -4.0709,0.29314 -18.6873,0.39262 -23.3545,0.15898 -16.018,-0.80192 -28.6437,-3.13011 -40.1091,-7.39617 -1.3688,-0.50929 -2.5469,-0.83939 -2.6451,-0.74117 -0.1783,0.1783 -2.6794,8.77917 -4.8311,16.61333 -2.7172,9.89306 -5.0712,20.24277 -5.9953,26.35884 -0.7552,4.99788 -0.9521,5.44613 -2.7911,6.35403 -3.4842,1.72011 -9.6677,2.54178 -15.722,2.08915 z m 124.7829,-4.71955 c -0.1077,-1.78815 -0.6583,-4.69052 -1.0635,-5.60659 -0.4348,-0.98296 -1.262,-1.53038 -2.3127,-1.53038 -0.8039,0 -2.1416,1.28195 -2.8271,2.70943 -0.321,0.66845 -1.2851,4.32483 -1.2851,4.87395 0,0.22801 4.1904,0.65012 6.1027,0.61473 l 1.4481,-0.0268 z m -121.7619,-0.98262 c -0.1645,-1.98336 -0.6089,-4.0491 -1.0582,-4.91783 -0.3702,-0.71603 -1.2762,-1.23652 -2.1522,-1.23652 -0.7718,0 -1.8922,0.94002 -2.6387,2.21379 -0.5653,0.96459 -1.5873,4.81909 -1.3443,5.06983 0.2105,0.21722 3.1712,0.51943 5.3916,0.55034 l 1.9433,0.027 z m 111.0029,-0.17063 c 0.3269,-1.51039 0.6196,-5.43876 0.4853,-6.51375 -0.1852,-1.48185 -0.8906,-2.36613 -1.8876,-2.36613 -0.84,0 -1.924,0.97702 -2.8646,2.58199 -0.6323,1.07897 -1.6863,5.03353 -1.4139,5.30532 0.232,0.23161 5.0875,1.8408 5.3259,1.76512 0.1109,-0.0352 0.2706,-0.38283 0.3549,-0.77255 z m -121.6411,-0.10145 c 0.09,-0.3339 0.2708,-1.78548 0.4026,-3.2257 0.1858,-2.02984 0.1833,-2.84378 -0.011,-3.6202 -0.9741,-3.88752 -4.4798,-1.6082 -5.7422,3.73334 -0.3855,1.63118 -0.4323,2.09707 -0.2243,2.23041 0.2396,0.15358 2.4977,0.8782 4.2969,1.37887 0.96,0.26711 1.0864,0.218 1.2782,-0.49672 z m 203.7832,0.088 c 0.8833,-0.12452 1.6582,-0.31084 1.722,-0.41407 0.241,-0.38997 -1.4865,-5.08984 -2.3704,-6.44895 -1.3768,-2.11692 -3.3948,-1.68105 -4.6122,0.99616 -0.3919,0.8619 -0.4836,1.47926 -0.5499,3.70297 l -0.08,2.66865 2.142,-0.13921 c 1.1781,-0.0766 2.8647,-0.24106 3.748,-0.36555 z m -9.4185,-1.88464 c -0.1935,-3.5888 -1.0457,-6.72482 -1.9184,-7.05974 -1.2916,-0.49562 -2.3009,0.16272 -3.2283,2.10563 -0.6155,1.28945 -0.6668,1.56748 -0.7393,4.00568 l -0.078,2.62005 1.4063,0.13339 c 0.7734,0.0734 1.5458,0.16355 1.7165,0.2004 0.1706,0.0368 0.9055,0.0778 1.6329,0.091 l 1.3226,0.024 z m -9.3904,-1.44808 c -0.1774,-4.76787 -0.7274,-7.05199 -2.0781,-8.63009 -1.2527,-1.46338 -2.2066,-0.99681 -3.4788,1.7015 -0.7709,1.63521 -1.8254,5.438 -1.718,6.19557 0.081,0.56887 1.5599,1.34132 4.515,2.35764 3.0259,1.04072 2.8625,1.13689 2.7599,-1.62462 z m -194.1135,0.81566 c 0,-0.0349 0.185,-1.07011 0.411,-2.30038 0.7881,-4.28956 0.7482,-6.62915 -0.1448,-8.50195 -1.0835,-2.27202 -3.6854,-0.66471 -5.8156,3.59246 -0.5887,1.17653 -1.0704,2.334 -1.0704,2.57219 0,0.70236 1.8017,2.23043 4.1394,3.51083 1.9742,1.08128 2.4804,1.31128 2.4804,1.12685 z m 122.0891,-2.31597 c 0.7482,-4.17118 0.6987,-6.68447 -0.1674,-8.50973 -0.5278,-1.11219 -1.1468,-1.3023 -2.281,-0.70059 -1.2973,0.68822 -2.4203,2.04976 -3.5233,4.27157 -1.1244,2.26511 -1.1003,2.5793 0.3066,3.98218 1.032,1.02916 4.4928,3.1591 4.9959,3.07474 0.206,-0.0345 0.4129,-0.68946 0.6692,-2.11817 z m -165.8609,-24.30811 c 2.7055,-3.51296 3.3081,-5.10413 2.3798,-6.28417 -1.3836,-1.75907 -3.7614,-1.49899 -6.8642,0.75076 -0.8841,0.64101 -1.7917,1.22396 -2.017,1.29548 -0.6491,0.206 -0.4875,0.74874 0.6494,2.18116 1.3397,1.68792 3.7181,4.12701 4.0244,4.12701 0.1283,0 0.9507,-0.93161 1.8276,-2.07024 z m -7.2356,-7.94581 c 1.9314,-1.4801 4.5941,-4.23538 4.9757,-5.14852 0.3641,-0.87142 0.1376,-1.75762 -0.5605,-2.19362 -0.6294,-0.39305 -2.5029,-0.3254 -3.9872,0.14396 -1.1518,0.36424 -4.8614,2.76275 -4.8614,3.14329 0,0.20554 2.2467,4.58119 2.5234,4.91466 0.1191,0.14351 0.2686,0.26093 0.3321,0.26093 0.064,0 0.7736,-0.50431 1.5779,-1.1207 z m -95.10854,0.0724 c 7.23306,-0.98701 13.76725,-4.50711 17.77539,-9.57597 1.5582,-1.97057 1.81629,-2.80119 1.10548,-3.55781 -0.26125,-0.2781 -0.69381,-0.50561 -0.96127,-0.50561 -0.58953,0 -2.54686,0.96912 -6.26827,3.10353 -8.05248,4.61853 -11.0112,5.54555 -20.15501,6.31491 -2.1537,0.1812 -4.08424,0.41961 -4.29008,0.52977 -0.50848,0.27214 -0.70291,1.14247 -0.35053,1.56914 0.59441,0.71972 3.54876,1.73989 6.13896,2.11985 1.72932,0.25368 5.15447,0.25476 7.00533,0.002 z m 90.65634,-8.50466 c 3.7896,-2.83247 6.207,-5.39371 6.6526,-7.04829 0.321,-1.19216 0.109,-1.77981 -0.7753,-2.1493 -1.1914,-0.49777 -3.587,-0.0174 -7.049,1.41335 -1.7552,0.72544 -1.8172,0.84946 -1.6493,3.29992 0.1185,1.72862 1.1048,5.34878 1.4573,5.34878 0.1139,0 0.7276,-0.38902 1.3637,-0.86446 z m -95.77661,-0.16655 c 0.95872,-0.11022 1.833,-0.29026 1.94284,-0.40011 0.12836,-0.12836 -0.0297,-0.55724 -0.4425,-1.20048 -1.44658,-2.25431 -2.60201,-5.46334 -2.84123,-7.89115 -0.08,-0.81161 -0.15666,-1.47443 -0.1704,-1.47296 -0.0137,0.002 -0.63008,0.19447 -1.36963,0.4289 -0.85577,0.27126 -2.19701,0.46982 -3.68905,0.54609 -2.26646,0.11587 -2.35099,0.13717 -2.54247,0.64082 -0.10893,0.28651 -0.71562,1.43502 -1.3482,2.55224 -1.39008,2.45509 -2.56112,5.09339 -2.42184,5.45635 0.056,0.14598 0.77001,0.42937 1.58665,0.62977 3.39666,0.83349 7.811,1.11115 11.29583,0.71053 z m 7.46251,-1.55814 c 0.96711,-0.30414 2.96857,-1.14584 4.44768,-1.87046 8.80343,-4.31282 15.27131,-12.78482 19.41652,-25.43291 1.05245,-3.21129 2.20497,-7.82883 2.005,-8.03301 -0.0926,-0.0946 -1.87838,-0.16317 -3.96831,-0.15237 -4.36572,0.0225 -6.795,-0.29514 -9.48877,-1.24091 -0.96711,-0.33953 -1.84604,-0.63827 -1.95318,-0.66382 -0.10713,-0.0256 -0.53239,1.30336 -0.94502,2.95314 -0.89977,3.59753 -1.6486,5.89418 -2.71791,8.33575 -0.43825,1.00064 -0.79682,1.91248 -0.79682,2.0263 0,0.37251 1.99183,3.16716 2.91424,4.08886 1.15118,1.15027 2.16112,1.85543 5.24608,3.6629 2.26879,1.32926 2.49918,1.51914 2.5573,2.10766 0.0506,0.51213 -0.0518,0.72261 -0.49191,1.01095 -0.52672,0.34512 -0.62745,0.34584 -1.9257,0.0139 -3.28049,-0.839 -7.18643,-3.33274 -9.27332,-5.9205 -0.54557,-0.67652 -1.08503,-1.23534 -1.19881,-1.24183 -0.11377,-0.006 -0.76541,0.7017 -1.44808,1.57377 -1.41824,1.8117 -3.6623,3.80357 -5.83763,5.18161 -1.91296,1.21179 -2.00464,1.46707 -1.86869,5.20339 0.0899,2.47094 0.18015,3.03068 0.73732,4.57388 1.25675,3.48084 1.94039,4.64342 2.61226,4.44238 0.12065,-0.0361 1.01064,-0.31446 1.97775,-0.6186 z m -22.74364,-2.89287 c 0.36074,-1.024 1.0708,-2.79273 1.5779,-3.9305 0.5071,-1.13778 0.96985,-2.17972 1.02833,-2.31542 0.0628,-0.14576 -0.40405,-0.50437 -1.14092,-0.87634 -0.68599,-0.34628 -1.77223,-1.05722 -2.41389,-1.57986 l -1.16664,-0.95023 -1.06875,0.25178 c -3.0211,0.71173 -6.23674,2.72622 -5.97741,3.74462 0.0191,0.075 0.0856,0.44737 0.14788,0.82747 0.16262,0.99324 0.46997,1.50327 1.14685,1.90311 0.32695,0.19313 0.78129,0.61355 1.00964,0.93424 0.83207,1.16852 5.67974,4.37893 6.04925,4.00616 0.0835,-0.0843 0.44702,-0.99103 0.80776,-2.01503 z m -23.07035,-7.30331 c 1.219,-3.19389 3.65059,-8.02129 5.26444,-10.45144 1.73614,-2.61429 4.91224,-6.01088 7.46113,-7.97909 0.97292,-0.75129 3.10352,-2.20378 4.73467,-3.22778 4.65229,-2.92061 6.54183,-5.08336 6.7851,-7.76618 0.13108,-1.44557 -0.21707,-2.57789 -0.93777,-3.05003 -0.43401,-0.28432 -0.99466,-0.35107 -2.82599,-0.33639 -10.81696,0.0866 -20.46117,9.61261 -22.81003,22.53038 -0.86643,4.76502 0.0347,13.55458 1.28349,12.51821 0.15368,-0.12754 0.62391,-1.13449 1.04496,-2.23768 z m 14.24547,-3.63874 c 1.27794,-0.87491 3.30382,-1.78037 3.98343,-1.78037 0.36258,0 0.36806,0.0377 -0.37203,-2.56149 -0.42401,-1.48915 -0.52571,-1.65626 -1.1725,-1.92651 -0.95489,-0.39897 -2.77744,-0.45006 -3.21215,-0.0901 -0.63562,0.5264 -1.17096,2.80274 -1.17096,4.9791 0,2.70541 0.004,2.70793 1.94421,1.37932 z m 61.41318,-9.27936 c 1.62579,-1.6306 2.71501,-3.27289 3.72649,-5.61868 2.87112,-6.65857 2.84949,-14.2588 -0.05,-17.56113 -0.72421,-0.82482 -1.60611,-1.02246 -2.06974,-0.46384 -0.13957,0.16817 -0.51545,2.66019 -0.85028,5.63718 -0.91047,8.09504 -1.72043,11.86346 -3.38647,15.7559 -0.86163,2.01308 -0.92606,2.76594 -0.27571,3.22146 0.89567,0.62735 1.52024,0.41866 2.9057,-0.97089 z m -2.91181,-16.91152 c 1.36612,-7.66591 1.92375,-15.34897 1.75667,-24.20363 -0.17611,-9.3333 -0.69655,-15.01079 -3.0325,-33.08203 -2.62186,-20.28306 -2.99182,-24.77085 -2.99433,-36.32242 -0.002,-9.52825 0.20814,-13.03264 1.24355,-20.73168 2.02009,-15.02085 6.36809,-29.3329 12.51674,-41.20055 0.78869,-1.52228 1.43399,-2.89405 1.43399,-3.04836 0,-0.15431 -0.77992,-1.06049 -1.73315,-2.01372 -1.32024,-1.32024 -1.92399,-2.11928 -2.53414,-3.35384 -0.75258,-1.52274 -0.80099,-1.73441 -0.80099,-3.50234 0,-2.55381 0.18153,-2.8099 2.41846,-3.41182 0.9454,-0.25439 3.35459,-0.96165 5.35375,-1.57169 1.99916,-0.61004 4.55916,-1.33563 5.68889,-1.61241 1.12973,-0.27678 2.202,-0.56288 2.38284,-0.63577 0.50817,-0.20485 5.56697,-5.6275 5.56697,-5.96738 0,-0.16552 -0.86109,-1.17923 -1.91354,-2.25268 -3.16473,-3.22792 -4.72927,-5.51018 -5.62863,-8.21069 -0.8869,-2.66312 -0.7143,-3.19791 1.23267,-3.81947 1.74354,-0.55661 2.85913,-0.74472 6.35666,-1.07185 1.85139,-0.17316 4.71599,-0.51039 6.36577,-0.7494 4.48387,-0.64959 7.39207,-0.30224 8.06967,0.96383 0.2239,0.41839 0.2119,0.64316 -0.074,1.3925 -0.3367,0.88167 -0.4424,1.60379 -0.2347,1.60379 0.282,0 5.6858,-4.01886 5.6858,-4.22854 0,-0.13239 -0.8986,-1.3995 -1.9969,-2.81579 -5.2593,-6.78221 -7.5158,-11.32528 -7.8549,-15.81466 -0.1121,-1.48402 -0.08,-1.71205 0.3147,-2.20781 0.5191,-0.65268 1.8832,-1.01103 5.8177,-1.52824 4.3808,-0.57588 16.6927,-0.16371 18.6376,0.62395 0.42,0.17009 0.8039,0.99451 0.8035,1.72547 -6e-4,0.99891 -5.2735,10.62891 -7.4422,13.59188 -1.5185,2.07471 -1.283,2.21534 1.2045,0.71922 7.6483,-4.59997 18.0406,-9.69534 30.6485,-15.02712 10.7468,-4.54469 15.4722,-7.13116 20.0696,-10.98504 1.0827,-0.90761 2.3144,-2.09408 2.737,-2.63659 2.3206,-2.9786 0.4832,-5.75025 -4.4123,-6.65559 -2.8341,-0.52412 -18.5768,-0.52534 -23.566,-0.002 -14.646,1.53679 -25.7155,4.66016 -37.9604,10.71094 -20.15029,9.9572 -36.80605,25.05282 -47.79895,43.32167 -15.72213,26.12822 -21.81675,63.47984 -17.45109,106.95111 0.22852,2.27555 0.59703,5.67337 0.8189,7.5507 0.22187,1.87734 0.40434,3.92534 0.40549,4.55111 10e-4,0.62578 0.0908,1.4636 0.19915,1.86182 0.18148,0.6668 2.36749,17.37112 2.91945,22.30889 0.13152,1.17656 0.18708,2.45989 0.12347,2.85189 -0.0636,0.39197 0.008,1.06343 0.15935,1.49212 0.15126,0.42872 0.44832,2.82246 0.66014,5.31944 0.52332,6.16893 0.53716,22.46663 0.0228,26.8818 -0.18556,1.59289 -0.27286,2.95914 -0.19402,3.03609 0.33714,0.32907 6.41585,2.02742 8.36203,2.33629 3.84159,0.60969 6.04576,0.89498 6.67586,0.86409 0.61747,-0.0303 0.62238,-0.0404 0.97083,-1.99566 z m 11.23442,-179.45378 c -1.3283,-0.35538 -2.79941,-1.8812 -3.31742,-3.44078 -0.74463,-2.24189 0.017,-4.95959 1.67754,-5.98586 2.15256,-1.33036 5.19738,-0.26043 6.60617,2.32137 0.78831,1.44467 0.85616,3.53061 0.15779,4.85061 -1.04098,1.96755 -2.9907,2.82545 -5.12408,2.25466 z m -3.48226,159.46857 c 2.51269,-2.66422 3.8129,-8.97111 3.35773,-16.28729 -0.32502,-5.22443 -0.9806,-8.83639 -3.7074,-20.42648 -2.05045,-8.7153 -3.16217,-14.20884 -3.70151,-18.29085 -0.34942,-2.64453 -0.47605,-3.15645 -0.85715,-3.46506 -0.60917,-0.49327 -1.1551,-0.45459 -1.73245,0.12276 -0.44319,0.4432 -0.49791,0.72888 -0.63696,3.32502 -0.35748,6.67435 0.95719,20.09502 3.13073,31.95987 1.58452,8.64955 1.75691,9.97548 1.87164,14.39593 0.0806,3.10601 0.0295,4.64805 -0.20509,6.18597 -0.41144,2.6973 -0.23713,3.1714 1.18032,3.21023 0.42924,0.0118 0.7933,-0.1927 1.30014,-0.7301 z m 38.33959,-5.26621 c 0.7396,-0.11945 1.9963,-0.44072 2.7928,-0.71393 1.1669,-0.40027 1.6384,-0.70155 2.4283,-1.55149 2.3414,-2.51933 2.367,-6.51941 0.077,-11.96878 -0.7973,-1.89689 -0.6143,-1.86557 -4.677,-0.80063 -5.7559,1.50876 -9.1634,1.86093 -17.17015,1.77463 -6.84502,-0.0738 -7.4669,0.0124 -8.65244,1.19785 -0.68252,0.68252 -0.70795,0.76179 -0.59506,1.85557 0.20767,2.01209 1.80653,3.9666 4.60467,5.62896 3.58392,2.12917 9.44285,4.07051 14.05538,4.65719 1.3727,0.17462 5.8745,0.12454 7.1369,-0.0794 z m -66.61985,-12.34696 c -0.013,-1.55673 -0.75871,-7.31428 -0.97546,-7.53104 -0.10799,-0.10798 -2.04866,-0.21477 -4.31261,-0.2373 -3.54482,-0.0353 -4.22821,0.01 -4.92255,0.32326 -1.53721,0.69439 -1.64509,1.37367 -0.47656,3.00081 1.31416,1.82994 5.0122,4.04706 8.31637,4.98602 2.27788,0.64729 2.38051,0.62383 2.37081,-0.54175 z M 1152.094,504.17393 c 1.2367,-1.4698 1.6687,-4.7917 1.4968,-11.51038 -0.069,-2.70924 -0.1818,-5.35938 -0.2501,-5.88921 -0.1034,-0.80331 -0.052,-1.03526 0.309,-1.39636 0.2453,-0.24535 0.6997,-0.43304 1.0483,-0.43304 0.8115,0 1.1051,0.58543 1.6146,3.2193 0.6302,3.25729 2.3006,6.11307 4.4089,7.53761 0.9508,0.64237 1.2485,0.73173 2.6465,0.79444 1.3103,0.0588 1.8189,-0.0211 3.0234,-0.47504 3.8245,-1.44123 7.5719,-4.36826 11.675,-9.11902 11.0374,-12.77984 18.3414,-29.05061 21.5287,-47.95892 0.9849,-5.84303 1.2966,-9.56434 1.3105,-15.64523 0.019,-8.39488 -0.7504,-13.98701 -2.9024,-21.09358 -1.1497,-3.79655 -4.1279,-10.26644 -6.05,-13.14319 -0.9003,-1.34743 -1.0307,-2.03331 -0.4986,-2.62129 0.4591,-0.50728 1.185,-0.47995 4.232,0.15936 4.749,0.99643 9.0183,0.88134 11.0368,-0.29752 0.8291,-0.48421 1.5589,-1.59729 1.5589,-2.37755 0,-2.20261 -3.2986,-5.38565 -8.0679,-7.78527 -4.6196,-2.32433 -9.1688,-3.43097 -14.998,-3.64846 -1.7066,-0.0637 -3.3529,-0.2101 -3.6584,-0.32539 -0.7325,-0.27643 -1.0829,-1.246 -0.7809,-2.161 0.2848,-0.86296 1.0969,-1.37586 6.3012,-3.97972 4.6071,-2.3051 6.5081,-3.48999 8.1283,-5.06641 1.1426,-1.11176 2.3185,-3.14819 2.3185,-4.01513 0,-0.81386 -1.1746,-1.81859 -2.4444,-2.09092 -2.293,-0.49175 -7.1832,-0.1291 -9.7002,0.71937 -0.5454,0.18382 -2.9464,1.17583 -5.3358,2.20445 -2.3893,1.02863 -4.6149,1.87145 -4.9458,1.87294 -0.7742,0.003 -1.5705,-0.88767 -1.5705,-1.7575 0,-0.54127 0.4317,-1.06074 2.9562,-3.55695 4.223,-4.17562 5.871,-6.66884 6.0763,-9.19302 0.1624,-1.99508 -0.8399,-3.09551 -2.9976,-3.29116 -3.7662,-0.3415 -11.0018,2.31627 -21.5861,7.92893 -7.0081,3.71626 -15.6616,8.94541 -20.0302,12.10388 -5.6764,4.10394 -7.9387,7.51726 -6.2849,9.48264 1.254,1.49035 3.0986,1.65029 6.3496,0.55059 2.1842,-0.73885 2.7753,-0.74848 3.4178,-0.0557 0.8022,0.86509 0.6769,1.49042 -0.5934,2.96186 -1.2476,1.44524 -2.6067,4.09279 -2.8904,5.63044 -0.6377,3.4564 0.036,6.61968 2.8925,13.57338 1.7967,4.37436 2.6721,6.84492 3.2982,9.30909 1.1637,4.57997 1.4605,8.52843 0.9701,12.90709 -1.3976,12.47772 -6.736,23.99005 -15.359,33.12226 -5.1529,5.45716 -6.2265,7.27768 -6.587,11.17081 -0.4733,5.11034 2.4468,16.26586 6.2543,23.89236 1.9574,3.92077 3.318,5.48641 4.5085,5.18764 1.2918,-0.32425 2.2694,-4.63857 2.5534,-11.26869 l 0.1541,-3.59863 0.5908,-0.50822 c 0.4649,-0.3999 0.7414,-0.4838 1.2972,-0.39361 0.9224,0.1497 1.2543,0.44595 1.3908,1.24149 0.062,0.35835 0.4378,2.5599 0.8362,4.89235 1.339,7.83805 2.4086,11.41315 5.1809,17.31697 2.1613,4.6024 4.1757,7.50727 5.206,7.50727 0.2369,0 0.6695,-0.28368 0.9613,-0.63041 z m -106.6488,-2.27405 c 8.0207,-1.00573 14.8449,-8.21637 13.1837,-13.93048 -0.4689,-1.61316 -1.9947,-3.19048 -3.7397,-3.866 -1.5738,-0.60925 -4.5193,-0.65735 -6.413,-0.10472 -4.7599,1.38911 -9.8407,5.5967 -11.4233,9.46005 -0.244,0.59555 -0.3656,1.42216 -0.3606,2.45026 0.01,1.30583 0.1005,1.72147 0.5948,2.62485 1.0923,1.99624 2.483,3.00524 4.646,3.37072 1.3828,0.23366 1.6137,0.23334 3.5121,-0.005 z m -23.4878,-14.28758 c 0.8183,-0.12584 2.791,-0.69534 4.3839,-1.26557 6.4884,-2.32273 10.9417,-5.21673 14.903,-9.68488 5.7868,-6.52731 9.1417,-14.7132 9.2377,-22.54034 0.017,-1.42222 -0.088,-3.28404 -0.2339,-4.13737 -0.62,-3.62089 -2.438,-6.69309 -4.9986,-8.44673 -0.7756,-0.53119 -1.4141,-1.07803 -1.419,-1.2152 -0.01,-0.25691 0.6808,-1.40144 1.4272,-2.36793 0.2331,-0.30176 0.5291,-1.00503 0.6579,-1.56283 0.302,-1.3083 -0.1125,-2.22093 -1.2186,-2.68307 -1.9257,-0.80463 -4.4167,0.68169 -5.6851,3.39227 -0.4484,0.95834 -0.7048,1.29092 -0.9287,1.20499 -0.1701,-0.0653 -1.4181,-0.22955 -2.7733,-0.36504 -2.0926,-0.20923 -2.4426,-0.29455 -2.3218,-0.56606 0.4528,-1.01764 0.9279,-3.437 0.8043,-4.0957 -0.1882,-1.00311 -1.0653,-1.82868 -2.1349,-2.00939 -2.9222,-0.49369 -5.5666,1.63272 -7.2986,5.86885 l -0.6673,1.63193 -1.261,0.24971 c -0.6936,0.13733 -1.4239,0.29291 -1.623,0.34573 -0.2996,0.0795 -0.3621,-0.0439 -0.3621,-0.71478 0,-1.54348 -1.3741,-2.93469 -3.0585,-3.09653 -1.9379,-0.18622 -3.286,1.01067 -4.0628,3.60701 -0.198,0.66186 -0.3959,1.31974 -0.4399,1.46196 -0.044,0.14222 -0.3026,0.25858 -0.5747,0.25858 -0.2722,0 -0.8103,0.21195 -1.196,0.47099 -0.3857,0.25904 -1.7717,0.92398 -3.0802,1.47764 -9.02005,3.8168 -13.9746,7.94669 -15.53096,12.94592 -1.01121,3.24814 -0.97346,6.19862 0.13817,10.7987 0.75761,3.13507 2.53441,8.32938 3.17599,9.28466 1.218,1.81356 4.601,4.89998 7.5623,6.8992 2.9193,1.97094 7.6937,4.05148 10.9206,4.75892 1.5937,0.34938 5.6729,0.39965 7.6579,0.0944 z m -6.6836,-7.10644 c -7.3416,-1.57805 -12.6808,-6.65884 -15.0305,-14.30314 -0.52747,-1.71586 -0.56675,-2.10176 -0.57703,-5.66828 -0.0135,-4.67201 0.13208,-5.26191 1.38123,-5.59829 0.9305,-0.25054 2.0757,-0.11756 2.3845,0.2769 0.109,0.13921 0.3147,0.99783 0.4571,1.90806 0.6209,3.96845 2.3278,8.0862 4.4581,10.7548 3.5325,4.42506 8.4255,6.135 13.6264,4.76204 5.6284,-1.48578 9.7218,-4.87123 11.644,-9.63 0.9961,-2.46608 1.189,-3.88865 1.1068,-8.1624 -0.141,-7.34009 -0.183,-6.69544 0.4721,-7.25857 0.7926,-0.68144 2.2401,-0.69688 2.9059,-0.031 0.5955,0.59547 1.6362,3.0895 2.3241,5.56953 0.7289,2.62821 0.9174,7.2595 0.4067,9.99481 -1.5108,8.09149 -7.9095,14.83325 -16.211,17.08015 -2.0846,0.56422 -7.3448,0.73607 -9.3484,0.30541 z m -45.23153,-28.09102 c 0.33708,-0.30794 1.14472,-2.08883 2.38659,-5.26257 3.42763,-8.75965 5.24171,-14.77947 6.33906,-21.0354 0.77346,-4.40945 0.67785,-5.14607 -0.66789,-5.14607 -0.69842,0 -1.10498,0.50059 -2.77211,3.41322 -4.17701,7.29765 -7.21559,18.0028 -7.21904,25.43324 -10e-4,2.26583 0.028,2.43936 0.45865,2.74101 0.61644,0.43177 0.87236,0.40688 1.47474,-0.14343 z m 42.41053,-38.43811 c 1.4383,-1.59967 3.0398,-3.79601 4.5165,-6.1938 1.5576,-2.52931 3.3485,-5.78309 3.2407,-5.88779 -0.2258,-0.21905 -5.0953,-0.52492 -8.3337,-0.52345 -4.8737,0.002 -8.394,0.36183 -8.394,0.8575 0,0.47109 1.8432,4.09987 3.0914,6.08641 1.4508,2.30877 4.5941,6.69658 4.8022,6.70332 0.075,0.002 0.5594,-0.46656 1.0769,-1.04219 z m 35.0045,-1.67467 c 1.26,-1.29086 2.8712,-3.13031 3.5804,-4.08768 1.272,-1.71713 3.1274,-5.1946 3.1274,-5.86157 0,-0.41988 -0.8228,-0.67265 -3.6202,-1.11213 -3.4967,-0.54935 -9.1437,-0.16583 -12.6754,0.86085 l -1.1069,0.3218 1.6989,3.24868 c 2.1398,4.09171 3.5803,6.41684 4.9807,8.03908 0.8104,0.93878 1.1816,1.22951 1.4118,1.10581 0.1718,-0.0923 1.3433,-1.22397 2.6033,-2.51484 z m -61.14485,-0.72111 c 0.80954,-1.21064 1.78159,-2.81645 2.16011,-3.56848 0.79797,-1.58535 1.85602,-4.51478 2.06291,-5.71156 0.0787,-0.45512 0.19089,-0.99039 0.24938,-1.1895 0.27434,-0.93391 -4.01811,-0.15047 -11.19588,2.04342 -2.84444,0.86941 -5.24587,1.64702 -5.3365,1.72803 -0.26322,0.23528 1.83128,3.19284 3.01461,4.25679 1.62983,1.46542 3.55314,2.77791 5.5096,3.75981 0.96729,0.48546 1.82738,0.88266 1.9113,0.88266 0.0839,0 0.81493,-0.99053 1.62447,-2.20117 z m 12.49398,-23.88283 c 1.25237,-2.36702 4.05527,-8.75295 4.05527,-9.23928 0,-0.36227 -1.3155,-0.26885 -5.17172,0.36724 -1.30844,0.21583 -3.82189,0.54066 -5.58545,0.72183 -3.19611,0.32836 -4.13737,0.47665 -4.13737,0.65182 0,0.22691 1.84169,2.79653 3.01525,4.20703 0.70999,0.85334 2.37274,2.6156 3.69501,3.91613 2.78338,2.73765 2.31224,2.80893 4.12901,-0.62477 z m 34.47767,-0.65176 c 2.4301,-3.03315 4.2581,-5.59802 5.4441,-7.63828 0.4247,-0.73065 0.4976,-1.0038 0.3004,-1.12567 -0.3098,-0.19143 -14.6221,-0.10914 -15.7295,0.0904 l -0.7667,0.13817 0.9972,1.28112 c 1.3262,1.70397 3.7108,5.24409 4.5713,6.78675 0.971,1.74061 2.2552,3.62021 2.4736,3.62021 0.101,0 1.3204,-1.41873 2.7096,-3.15273 z m -18.2701,-18.51677 c 0.5622,-0.65422 1.5348,-1.88767 2.1612,-2.74101 1.9637,-2.67521 5.5925,-8.92665 5.3276,-9.17786 -0.051,-0.048 -1.6245,-0.20378 -3.4975,-0.34627 -3.6823,-0.28012 -8.9777,-0.17568 -11.6499,0.22977 -1.8927,0.28719 -1.8705,0.0599 -0.3113,3.19174 1.5343,3.08152 6.2253,10.03313 6.7705,10.03313 0.097,0 0.6371,-0.53528 1.1994,-1.1895 z m 39.3714,-5.64533 c 5.3582,-1.07721 10.4825,-3.61001 14.7249,-7.27813 1.6734,-1.44687 3.673,-3.9834 3.673,-4.65931 0,-0.69595 -0.7531,-1.50086 -1.4042,-1.50086 -0.291,0 -1.6914,0.7918 -3.3081,1.87035 -4.7078,3.14088 -10.1854,5.64548 -18.2795,8.35826 -2.1739,0.72858 -4.0275,1.40156 -4.119,1.49551 -0.3502,0.35924 -0.4159,1.21234 -0.1241,1.61105 0.5922,0.80897 5.0663,0.86119 8.837,0.10313 z"
         id="path847"
         inkscape:connector-curvature="0" />
    </g>
  </g>
</svg>
